<svg width="40" height="40" viewBox="0 0 40 40" fill="none" xmlns="http://www.w3.org/2000/svg">
<path d="M34 19L31.8462 7.15385L20 5L8.15385 7.15385L6 19L8.15385 30.8462L13.5 31.9696L14 38L20 33L32.5641 31.5641L34 19Z" stroke="#00A538" stroke-width="2"/>
<path d="M11 17.4705L11.6821 20.7929L19.2071 28.3179L22.5295 29L25 26.4736V24.3073L21.9083 22.8782L20.1821 24.6043L15.3957 19.8179L17.1218 18.0917L15.6927 15H13.5264L11 17.4705Z" fill="#00A538"/>
<path d="M21.5909 9.41421L27.2478 12.2426L30.0762 17.8995" stroke="#00A538" stroke-width="2"/>
<path d="M20.8839 12.9493L24.773 14.7171L26.5408 18.6062" stroke="#00A538" stroke-width="2"/>
<path d="M19.9999 16.6622L22.1212 17.3693L22.8284 19.4906" stroke="#00A538" stroke-width="2"/>
</svg>
