<svg width="96" height="96" viewBox="0 0 96 96" fill="none" xmlns="http://www.w3.org/2000/svg">
<path d="M7.00036 28.2061V72.46H51.2543L56.4603 67.2539H12.2064V23L7.00036 28.2061Z" fill="#00A538"/>
<path d="M26.305 39.9206H17V36.5365H25.1211V32.9107H18.2462V29.6716H24.7057V26.3841H17.2077V23H25.8896L28.2989 25.804V29.8891L26.9904 31.0736L28.7143 32.6689V37.1166L26.305 39.9206Z" fill="white"/>
<path d="M17 62.0476V45.127H20.9713V51.7018H23.3351L26.5263 45.127H30.9231L26.81 53.1038L31.2777 62.0476H26.8336L23.5242 55.231H20.9713V62.0476H17Z" fill="white"/>
<path d="M36.4379 54.0224H41.8748V48.366H36.4379V54.0224ZM45.846 48.076V54.1916L43.9313 56.1495L46.7916 62.0476H42.3475L40.2437 57.2615H36.4379V62.0476H32.4666V45.127H42.9621L45.846 48.076Z" fill="white"/>
<path d="M47.1048 62.0476L50.7451 45.127H58.4513L62.0916 62.0476H57.884L57.1985 58.4217H51.998L51.3125 62.0476H47.1048ZM52.4944 55.4969H56.702L55.331 48.3419H53.8654L52.4944 55.4969Z" fill="white"/>
<path d="M63.4922 62.0476V45.127H74.8387V48.8011H67.4635V53.2489H74.3659V56.778H67.4635V62.0476H63.4922Z" fill="white"/>
<path d="M80.3138 62.0476V48.6561H76.0116V45.127H88.5873V48.6561H84.2851V62.0476H80.3138Z" fill="white"/>
</svg>
